<?xml version="1.0" encoding="UTF-8"?>
<svg id="_레이어_1" data-name="레이어_1" xmlns="http://www.w3.org/2000/svg" version="1.1" viewBox="0 0 32 32">
  <!-- Generator: Adobe Illustrator 29.7.1, SVG Export Plug-In . SVG Version: 2.1.1 Build 8)  -->
  <defs>
    <style>
      .st0 {
        fill: #fff;
      }
    </style>
  </defs>
  <rect x=".63" y=".85" width="30.74" height="30.3" rx="5.67" ry="5.67"/>
  <g>
    <path class="st0" d="M8.6,19.48c.56-.04,2.28-.98,2.85-1.29,2.75-1.47,5.71-3.51,8.18-5.6h0s1.72-1.43,2.01-1.74c0,0,0-.04-.13-.18h0c-.21-.23-.72-.64-.84-.73-1.46-1.11-3.56-1.85-5.41-1.73-4.74.3-8.43,4.49-7.8,9.28.08.61.33,2.06,1.14,2.01h0Z"/>
    <path class="st0" d="M29.64,4.65s-.32.13-.45.2l-8.27,3.71,3.44.99h0c-3.22,2.96-6.68,5.66-10.34,8.05-1.36.88-3.02,1.89-4.5,2.51-.16.07-1.12.37-1.16.42-.05.07.18.48.24.58.13.23.84,1.13.84,1.27,0,.04-.01.05-.04.08-.07.07-1.03.33-1.2.38-.69.19-1.98.53-2.67.44-.59-.07-.74-.56-.49-1.05.21-.41,1.07-1.07,1.46-1.37.1-.07.5-.34.76-.52-.29-.24-.18-.62-.1-.79-1.36.87-2.71,1.81-3.83,2.99-.24.25-.9.96-.96,1.27-.13.73.7.83,1.22.86,1.57.1,3.29-.45,4.78-.93,6.4-2.07,10.52-5.57,14.82-10.57.73-.84,1.41-1.73,2.11-2.59.05-.03.09-.04.12-.03l1.07,2.72,2.42-6.6c.26-.66.51-1.33.73-2.01h0Z"/>
    <path class="st0" d="M28.89,13.08c-.73-.07-1.69.03-2.41.18-.62.13-1.25.31-1.85.53.07.17.14.39.18.65.8-.13,3.28-.59,1.92.76-.44.44-1.22,1.01-1.75,1.37-.15.1-.58.42-.75.5.03-1.85-.56-3.14-.56-3.14-.18.18-.33.41-.5.59-2.09,2.23-5.14,5.03-8.15,7.01-.04.03-.09.06-.14.09-.24.16-.47.3-.71.45-1.56.9-3.45,1.54-3.45,1.54.11.09.32.21.56.35.42.25.85.47,1.3.67h0c1.22.52,2.53.8,3.88.72,3.2-.19,6.23-2.53,7.26-5.57h0c.21-.57.35-1.13.42-1.66,1.42-.9,2.92-1.72,4.16-2.87.45-.42,2.02-2.02.59-2.16h0Z"/>
  </g>
</svg>