<?xml version="1.0" encoding="UTF-8"?>
<svg id="_레이어_1" data-name="레이어_1" xmlns="http://www.w3.org/2000/svg" version="1.1" viewBox="0 0 150 30">
  <!-- Generator: Adobe Illustrator 29.7.1, SVG Export Plug-In . SVG Version: 2.1.1 Build 8)  -->
  <g>
    <path d="M9.81,21.03c.76-.05,3.07-1.32,3.84-1.74,3.71-1.99,7.71-4.73,11.04-7.56h0s2.32-1.93,2.71-2.35c0,0,0-.06-.18-.24,0,0,0,0,0,0-.28-.31-.97-.87-1.13-.99-1.97-1.5-4.8-2.5-7.3-2.34-6.4.41-11.37,6.06-10.53,12.52.11.82.45,2.78,1.54,2.71Z"/>
    <path d="M38.2,1.03s-.43.17-.61.27l-11.16,5,4.64,1.34h0c-4.34,4-9.01,7.63-13.95,10.86-1.83,1.19-4.07,2.55-6.07,3.38-.22.09-1.51.5-1.56.57-.07.1.24.65.32.78.17.31,1.14,1.52,1.14,1.71,0,.05-.02.07-.05.11-.09.09-1.39.45-1.62.51-.93.26-2.67.71-3.6.6-.79-.09-1-.75-.66-1.42.28-.55,1.45-1.45,1.97-1.85.13-.1.68-.46,1.02-.7-.39-.33-.24-.84-.14-1.07-1.84,1.17-3.66,2.44-5.17,4.03-.32.34-1.22,1.3-1.3,1.71-.18.98.94,1.12,1.65,1.16,2.12.13,4.44-.61,6.45-1.26,8.64-2.79,14.19-7.52,20-14.26.98-1.14,1.9-2.34,2.85-3.5.07-.04.12-.05.16-.04l1.44,3.67,3.27-8.9c.35-.89.69-1.8.99-2.71Z"/>
    <path d="M37.19,12.4c-.98-.1-2.28.04-3.25.24-.83.17-1.69.42-2.5.71.1.23.19.52.24.88,1.08-.18,4.43-.8,2.59,1.03-.6.6-1.65,1.36-2.36,1.85-.2.14-.78.56-1.01.67.04-2.49-.76-4.24-.76-4.24-.24.24-.45.55-.68.79-2.82,3.01-6.94,6.78-11,9.46-.06.04-.12.08-.19.12-.32.21-.64.41-.96.61-2.11,1.22-4.66,2.08-4.66,2.08.15.12.43.29.76.47.57.34,1.15.64,1.76.9,0,0,0,0,0,0h0c1.64.7,3.41,1.08,5.24.97,4.32-.26,8.41-3.42,9.8-7.52h0c.29-.77.47-1.52.57-2.24,1.92-1.21,3.94-2.32,5.61-3.87.61-.57,2.72-2.73.79-2.92Z"/>
  </g>
  <g>
    <path d="M58.5,8.85l-6.85,15.93h-3.98l-6.87-15.93h4.33l4.52,10.74,4.52-10.74h4.33Z"/>
    <path d="M63.9,8.85v15.84h-3.94v-15.84h3.94Z"/>
    <path d="M81.59,16.72c0,4.7-3.56,7.96-8.55,7.96h-6.36v-15.84h6.36c4.98,0,8.55,3.24,8.55,7.87ZM77.61,16.72c0-2.45-1.98-4.33-4.57-4.33h-2.42v8.76h2.42c2.59,0,4.57-1.91,4.57-4.42Z"/>
    <path d="M98.31,8.85v15.84h-3.91v-5.94h-6.45v5.94h-3.94v-15.84h3.94v6.36h6.45v-6.36h3.91Z"/>
    <path d="M115.61,17.3c0,4.91-2.84,7.69-7.38,7.69s-7.36-2.77-7.36-7.69v-8.45h3.96v8.52c0,2.42,1.33,3.94,3.4,3.94s3.42-1.51,3.42-3.94v-8.52h3.96v8.45Z"/>
    <path d="M132.73,8.85v15.84h-3.03l-7.59-8.69v8.69h-3.94v-15.84h3l7.64,8.92v-8.92h3.91Z"/>
    <path d="M148.51,12.37h-5.05v12.32h-3.91v-12.32h-5.05v-3.52h14.02v3.52Z"/>
  </g>
</svg>